HIERARCHY
ROOT root
{
	OFFSET	0	13.1	24.9
	CHANNELS 6  Xposition Yposition Zposition Xrotation Yrotation Zrotation
	JOINT spine_1
	{
		OFFSET	0	9.99999	0
		CHANNELS 3  Xrotation Yrotation Zrotation
		JOINT spine_2
		{
			OFFSET	0	112	-10
			CHANNELS 3  Xrotation Yrotation Zrotation
			JOINT spine_3
			{
				OFFSET	0	206.5	19.3
				CHANNELS 3  Xrotation Yrotation Zrotation
				JOINT spine_4
				{
					OFFSET	0	110.4	14.6
					CHANNELS 3  Xrotation Yrotation Zrotation
					JOINT neck_1
					{
						OFFSET	0	71.8	-50.3
						CHANNELS 3  Xrotation Yrotation Zrotation
						JOINT neck_2
						{
							OFFSET	0	86.2	-25.8
							CHANNELS 3  Xrotation Yrotation Zrotation
							JOINT head_ee
							{
								OFFSET	0	179.8	-8.7
								CHANNELS 3  Xrotation Yrotation Zrotation
								End Site
								{
									OFFSET	1	0	0
								}
							}
						}
					}
					JOINT left_clavicle
					{
						OFFSET	-43.2	22.4	-70.8
						CHANNELS 3  Xrotation Yrotation Zrotation
						JOINT left_shoulder
						{
							OFFSET	-93.9	-5.79999	48.7
							CHANNELS 3  Xrotation Yrotation Zrotation
							JOINT left_elbow
							{
								OFFSET	-291.4	-30.8	15.2
								CHANNELS 3  Xrotation Yrotation Zrotation
								JOINT left_lowarm_twist
								{
									OFFSET	-110.7	-3.89999	13.6
									CHANNELS 3  Xrotation Yrotation Zrotation
									JOINT left_hand
									{
										OFFSET	-110.7	-3.89999	13.6
										CHANNELS 3  Xrotation Yrotation Zrotation
										JOINT left_ee
										{
											OFFSET	-80.8	-5.10001	12.1
											CHANNELS 3  Xrotation Yrotation Zrotation
											End Site
											{
												OFFSET	1	0	0
											}
										}
									}
								}
							}
						}
					}
					JOINT right_clavicle
					{
						OFFSET	43.2	22.4	-70.8
						CHANNELS 3  Xrotation Yrotation Zrotation
						JOINT right_shoulder
						{
							OFFSET	93.9	-5.79999	48.7
							CHANNELS 3  Xrotation Yrotation Zrotation
							JOINT right_elbow
							{
								OFFSET	291.4	-30.8	15.2
								CHANNELS 3  Xrotation Yrotation Zrotation
								JOINT right_lowarm_twist
								{
									OFFSET	110.7	-3.89999	13.6
									CHANNELS 3  Xrotation Yrotation Zrotation
									JOINT right_hand
									{
										OFFSET	110.7	-3.89999	13.6
										CHANNELS 3  Xrotation Yrotation Zrotation
										JOINT right_ee
										{
											OFFSET	80.8	-5.10001	12.1
											CHANNELS 3  Xrotation Yrotation Zrotation
											End Site
											{
												OFFSET	1	0	0
											}
										}
									}
								}
							}
						}
					}
				}
			}
		}
	}
	JOINT left_hip
	{
		OFFSET	-82.8	-127.5	0.300001
		CHANNELS 3  Xrotation Yrotation Zrotation
		JOINT left_knee
		{
			OFFSET	-28.2	-396.7	2.2
			CHANNELS 3  Xrotation Yrotation Zrotation
			JOINT left_ankle
			{
				OFFSET	-11.7	-411.3	35.4
				CHANNELS 3  Xrotation Yrotation Zrotation
				JOINT left_toes
				{
					OFFSET	0	-60	-88.6
					CHANNELS 3  Xrotation Yrotation Zrotation
					JOINT left_foot_ee
					{
						OFFSET	-22.5	-16.5	-42.2
						CHANNELS 3  Xrotation Yrotation Zrotation
						End Site
						{
							OFFSET	1	0	0
						}
					}
				}
			}
		}
	}
	JOINT right_hip
	{
		OFFSET	82.8	-127.5	0.300001
		CHANNELS 3  Xrotation Yrotation Zrotation
		JOINT right_knee
		{
			OFFSET	28.2	-396.7	2.2
			CHANNELS 3  Xrotation Yrotation Zrotation
			JOINT right_ankle
			{
				OFFSET	11.7	-411.3	35.4
				CHANNELS 3  Xrotation Yrotation Zrotation
				JOINT right_toes
				{
					OFFSET	0	-60	-88.6
					CHANNELS 3  Xrotation Yrotation Zrotation
					JOINT right_foot_ee
					{
						OFFSET	22.5	-16.5	-42.2
						CHANNELS 3  Xrotation Yrotation Zrotation
						End Site
						{
							OFFSET	1	0	0
						}
					}
				}
			}
		}
	}
}
MOTION
Frames: 16
Frame Time: 0.02
3472.18 705.769 -1473.24 6.42716 70.3589 -16.7211 -0.68774 0.635244 3.79677 -0.679808 0.392541 3.82943 -0.647768 -0.464705 3.82136 -0.668112 0.144176 3.84677 -12.1209 16.9832 -0.437865 -12.7905 32.5209 4.70723 -0.0 0.0 -0.0 -3.38024 23.1998 -1.97398 -16.1497 -20.3896 64.4164 1.62658 -38.8575 0.573761 -33.8074 -2.31794 3.58137 -0.386717 17.2563 4.65519 -0.0 0.0 -0.0 13.3025 26.9125 -26.2654 -0.738876 17.7817 -67.6677 0.449956 12.5658 -0.0495398 77.7931 3.58653 8.4805 3.04031 4.839 -18.7726 0.0 0.0 0.0 10.4881 5.34213 5.60607 -56.776 -1.86209 8.16076 35.1332 7.23541 -4.41322 -19.9413 0.0 0.0 -0.0 0.0 -0.0 -1.31045 -7.74797 12.9729 -19.0843 -0.30541 -2.8992 38.1614 16.9855 5.06687 4.66316 -0.0 -0.0 0.0 0.0 0.0 
3469.45 706.858 -1472.58 2.31119 70.1967 -12.2331 -0.113818 0.653828 3.69351 -0.106327 0.417643 3.72756 -0.07479 -0.380239 3.73156 -0.0941541 0.213437 3.74479 -12.6934 17.0002 -0.925294 -13.458 32.9058 4.44662 -0.0 0.0 -0.0 -3.18766 23.5803 -1.62959 -18.0568 -19.8854 64.568 1.3715 -34.1905 0.421823 -33.7938 -2.31661 3.58025 -0.28565 17.6636 5.43532 -0.0 0.0 -0.0 13.4367 26.971 -26.5688 2.03877 18.8848 -67.2764 0.464098 12.9475 -0.0526624 77.6091 3.56575 8.46929 2.84354 6.6998 -16.5754 0.0 0.0 0.0 11.7066 3.77185 5.76767 -51.6149 -1.36571 7.53962 36.4418 11.9454 -4.56582 -19.3175 0.0 0.0 -0.0 0.0 -0.0 -1.22586 -9.2928 12.5238 -15.7137 -0.322054 -2.38238 36.4409 18.0251 4.94028 5.38287 -0.0 -0.0 0.0 0.0 0.0 
3467.36 710.172 -1470.63 1.23746 70.5118 -10.9382 -0.142694 0.837474 3.55537 -0.135869 0.609691 3.60137 -0.0930992 -0.166583 3.64875 -0.111438 0.411372 3.62934 -13.0808 16.5527 -1.17493 -13.8586 32.2358 4.17845 -0.0 0.0 -0.0 -2.62268 23.4167 -0.88535 -19.6374 -19.4408 64.7483 1.27311 -32.2367 0.367921 -33.5818 -2.29587 3.56264 0.00860769 14.9842 6.18799 -0.0 0.0 -0.0 13.1293 27.0215 -25.8514 3.64276 20.2742 -67.0031 0.586486 16.2002 -0.083471 76.6641 3.45958 8.41065 3.07266 7.82991 -17.6948 0.0 0.0 0.0 13.3157 2.10095 5.32585 -47.3366 -0.998198 6.99304 30.0907 14.8435 -3.94302 -20.2879 0.0 0.0 -0.0 0.0 -0.0 -0.320136 -8.88712 12.6158 -15.7947 -0.322011 -2.39481 34.8032 19.8724 4.84678 6.10813 -0.0 -0.0 0.0 0.0 0.0 
3466.24 714.365 -1479.54 -0.589081 69.1131 -8.94021 0.207276 1.05993 3.55451 0.21392 0.831749 3.61464 0.27045 0.0716564 3.70829 0.251863 0.656017 3.65058 -15.9815 16.5089 0.17073 -17.0908 31.5432 6.35448 -0.0 0.0 -0.0 -2.74902 22.6525 -1.20477 -22.0742 -18.2387 66.1771 1.04373 -27.3397 0.253858 -34.1374 -2.35034 3.60861 0.0362369 14.9707 6.355 -0.0 0.0 -0.0 13.7671 27.1495 -27.3132 6.21197 22.1733 -66.9741 0.531571 14.7527 -0.0688161 76.2474 3.41308 8.38424 3.1046 9.15653 -17.3246 0.0 0.0 0.0 20.1883 -0.210836 2.12799 -33.8279 -0.121484 5.1154 21.6533 20.383 -3.01543 -24.6623 0.0 0.0 -0.0 0.0 -0.0 -0.790874 -12.7332 11.0808 -10.3824 -0.286296 -1.56547 34.8042 23.65 5.01364 7.024 -0.0 -0.0 0.0 0.0 0.0 
3461.2 716.741 -1477.89 -3.29152 69.5855 -5.54602 0.52755 0.907737 3.54697 0.534291 0.680344 3.59746 0.580182 -0.0534866 3.66075 0.561869 0.524946 3.62336 -15.7291 16.5134 -1.61377 -16.8837 32.5537 4.63982 -0.0 0.0 -0.0 -2.09516 23.0506 -0.22346 -24.5508 -17.3709 65.9472 0.82654 -22.2662 0.162659 -34.1399 -2.35058 3.60881 -0.0999637 15.0378 5.53286 -0.0 0.0 -0.0 13.8785 27.1353 -27.5744 6.81259 22.1391 -66.5174 0.692896 18.9443 -0.115606 76.4133 3.43157 8.3948 3.31948 9.29103 -18.7864 0.0 0.0 0.0 21.7703 -2.17595 1.27609 -32.3632 -0.0536834 4.9009 17.5342 20.7485 -2.4882 -24.2119 0.0 0.0 -0.0 0.0 -0.0 -0.264534 -12.2537 11.2298 -10.3279 -0.285537 -1.55713 34.1598 27.0536 5.12317 6.01296 -0.0 -0.0 0.0 0.0 0.0 
3459.1 720.697 -1479.82 -5.30328 69.3504 -3.2287 0.784519 1.10094 3.51632 0.790971 0.8751 3.57914 0.84849 0.158665 3.68102 0.830343 0.73764 3.60993 -18.3353 15.7893 -4.39174 -19.8216 32.6797 2.62894 -0.0 0.0 -0.0 -1.77569 21.975 0.0443758 -27.5808 -16.2898 66.3935 0.799289 -21.6007 0.15248 -34.1739 -2.35393 3.61161 -0.34513 13.9843 3.57809 -0.0 0.0 -0.0 13.8381 27.2669 -27.4628 6.55696 23.1375 -65.5873 0.872549 23.3755 -0.180505 75.3522 3.31383 8.32637 3.9189 9.36138 -23.0763 0.0 0.0 0.0 22.9247 -1.72999 -0.269791 -29.0222 0.0802744 4.40575 12.3345 20.8173 -1.78489 -24.9084 0.0 0.0 -0.0 0.0 -0.0 -0.711889 -13.0749 10.2536 -7.16387 -0.227984 -1.07509 33.5586 30.5066 5.26823 7.22889 -0.0 -0.0 0.0 0.0 0.0 
3452.3 720.599 -1487.63 -5.74984 69.8624 -2.05066 0.882842 1.1282 3.48985 0.889163 0.903987 3.55446 0.947896 0.198241 3.66212 0.930019 0.773742 3.58503 -16.4166 15.8644 -4.62531 -17.6537 33.0158 1.80719 -0.0 0.0 -0.0 -1.72186 21.9698 0.119623 -29.57 -16.0914 66.7686 0.708024 -19.3275 0.120566 -34.4796 -2.38411 3.63666 -0.396255 13.7724 3.17109 -0.0 0.0 -0.0 14.209 27.1155 -28.3492 7.99439 24.3326 -65.9861 0.893053 23.864 -0.18872 75.761 3.35904 8.35299 3.70762 8.85821 -21.7744 0.0 0.0 0.0 23.9169 -2.37583 -1.8062 -29.6444 0.0575238 4.49852 11.7102 20.8649 -1.69848 -24.8924 0.0 0.0 -0.0 0.0 -0.0 -0.317913 -13.9944 8.69673 -9.66467 -0.275681 -1.45585 32.7701 24.9412 4.85566 6.30053 -0.0 -0.0 0.0 0.0 0.0 
3442.09 721.293 -1486.54 -6.80144 69.5789 -0.672562 1.08499 1.02802 3.47191 1.09133 0.805148 3.53019 1.14305 0.11812 3.61881 1.12544 0.687796 3.55489 -15.3662 15.6662 -5.92417 -16.4396 33.4095 0.153921 -0.0 0.0 -0.0 -1.57882 21.9993 0.326406 -32.1762 -15.429 67.1808 0.692184 -18.9262 0.115375 -34.8362 -2.41948 3.66567 -0.535372 13.0305 1.9898 -0.0 0.0 -0.0 13.6337 27.2157 -26.9943 8.52547 25.4439 -66.6289 1.09559 28.4889 -0.278138 75.2317 3.30053 8.31845 4.17048 9.00472 -25.1018 0.0 0.0 0.0 24.2344 -2.31663 -4.11576 -22.4971 0.257625 3.42061 10.7314 20.7871 -1.5611 -25.1655 0.0 0.0 -0.0 0.0 -0.0 -0.677583 -14.5564 9.39228 -9.1537 -0.267287 -1.37789 32.6882 31.7387 5.24977 8.58354 -0.0 -0.0 0.0 0.0 0.0 
3432.41 718.775 -1489.25 -7.3287 69.0385 0.635404 1.04721 1.05249 3.48498 1.05358 0.828741 3.54478 1.10709 0.136262 3.6377 1.08932 0.70869 3.57069 -14.4697 15.6713 -6.74321 -15.4141 33.9333 -0.924229 -0.0 0.0 -0.0 -0.975666 21.2179 1.06949 -34.86 -14.9397 67.6042 0.63577 -17.4815 0.0977502 -35.1698 -2.45273 3.69262 -0.628283 12.768 1.29474 -0.0 0.0 -0.0 13.7329 27.1106 -27.2385 10.2321 27.4724 -66.9905 1.14996 29.6674 -0.304567 74.9508 3.26962 8.29992 4.3073 8.69836 -26.2716 0.0 0.0 0.0 24.2502 -2.94675 -5.51054 -19.4515 0.301762 2.95542 9.76484 21.5902 -1.42965 -25.4852 0.0 0.0 -0.0 0.0 -0.0 -0.755864 -16.3873 8.41441 -9.14633 -0.267161 -1.37677 32.7152 31.3965 5.22932 9.44527 -0.0 -0.0 0.0 0.0 0.0 
3413.22 707.606 -1492.53 -7.40544 69.531 0.815352 1.30728 0.933077 3.57428 1.31412 0.7039 3.62632 1.3603 0.0142236 3.69388 1.34175 0.597032 3.64541 -11.0179 15.2716 -7.69127 -11.3783 33.8705 -3.1951 -0.0 0.0 -0.0 -0.893624 21.2608 1.19294 -39.8274 -13.8952 67.8212 0.651625 -17.89 0.102567 -36.8122 -2.6187 3.82244 -1.0185 11.1968 -1.8538 -0.0 0.0 -0.0 13.6111 27.1728 -26.9474 12.6402 28.5587 -67.5895 1.18817 30.4793 -0.323712 75.8958 3.37399 8.36169 4.32817 8.09291 -26.7213 0.0 0.0 0.0 23.9796 -3.28555 -6.73802 -14.4149 0.32035 2.18313 7.50586 21.9122 -1.10804 -26.1382 0.0 0.0 -0.0 0.0 -0.0 -1.13549 -16.7139 8.67029 -11.6357 -0.301535 -1.75716 34.354 30.3675 5.35001 11.3481 -0.0 -0.0 0.0 0.0 0.0 
3406.54 705.061 -1491.91 -8.69775 69.6249 2.35542 1.47042 0.788869 3.61207 1.4775 0.557583 3.65486 1.51422 -0.12522 3.69498 1.49546 0.459503 3.66847 -10.6743 15.2499 -7.53011 -10.9857 33.7309 -3.16491 -0.0 0.0 -0.0 -0.876741 21.8824 1.30149 -41.4991 -13.4102 68.5813 0.563797 -15.6046 0.0772542 -36.087 -2.54496 3.7657 -0.941799 10.757 -1.55908 -0.0 0.0 -0.0 13.5774 27.2314 -26.8616 14.6176 29.4506 -68.53 1.24183 31.5971 -0.351381 74.9904 3.27398 8.30254 4.14808 7.70968 -25.5532 0.0 0.0 0.0 24.1568 -3.49095 -7.15971 -12.7323 0.311426 1.92513 7.59795 22.2718 -1.12309 -26.1672 0.0 0.0 -0.0 0.0 -0.0 -1.43381 -15.8002 8.96029 -12.4416 -0.309118 -1.88059 31.7074 30.7312 5.06349 10.8904 -0.0 -0.0 0.0 0.0 0.0 
3402.12 707.59 -1494.05 -9.85787 69.0777 3.71093 1.57635 0.857685 3.74815 1.58396 0.617619 3.79504 1.6259 -0.0844253 3.84397 1.60567 0.523269 3.80918 -11.0011 15.0724 -7.76034 -11.3425 33.5404 -3.3312 -0.0 0.0 -0.0 -0.917625 22.1722 1.28331 -41.2278 -13.2302 69.1112 0.478705 -13.3407 0.055984 -36.2632 -2.56281 3.77957 -1.05659 11.4337 -1.9909 -0.0 0.0 -0.0 13.5909 27.1505 -26.9033 15.3632 29.8176 -68.2369 1.34547 33.682 -0.407289 74.4622 3.21606 8.2673 4.25106 6.69478 -26.804 0.0 0.0 0.0 24.3793 -3.88473 -8.25561 -7.71654 0.239956 1.15906 7.97496 22.1716 -1.17698 -27.1708 0.0 0.0 -0.0 0.0 -0.0 -1.5599 -17.5272 8.76946 -11.6017 -0.301177 -1.75196 31.3367 30.0772 4.97664 12.3562 -0.0 -0.0 0.0 0.0 0.0 
3392.36 706.518 -1494.06 -10.3978 69.0333 4.20381 1.57939 0.883634 3.97363 1.58795 0.629202 4.02169 1.63324 -0.113844 4.06895 1.61053 0.529665 4.03599 -10.8127 14.9514 -7.65075 -11.1212 33.2454 -3.32659 -0.0 0.0 -0.0 -0.915034 22.0406 1.26897 -40.6534 -13.3175 69.6153 0.42577 -11.9101 0.0444129 -36.5454 -2.59149 3.80167 -1.07355 11.8245 -1.92515 -0.0 0.0 -0.0 13.5177 27.1779 -26.7301 15.8975 30.0793 -67.7295 1.45097 35.7051 -0.467346 73.6967 3.13271 8.21529 4.12929 5.24142 -26.5563 0.0 0.0 0.0 24.9479 -3.84309 -8.32097 -4.43556 0.157043 0.66244 7.25365 23.512 -1.07944 -27.9024 0.0 0.0 -0.0 0.0 -0.0 -2.11592 -17.0819 8.89802 -11.3139 -0.298022 -1.70791 29.9803 30.5167 4.83613 13.3797 -0.0 -0.0 0.0 0.0 0.0 
3381.88 704.055 -1492.43 -11.192 68.9217 4.68017 1.5861 1.01057 4.00135 1.59469 0.754117 4.05742 1.64935 0.00395443 4.12678 1.62619 0.655104 4.07455 -11.1923 15.2437 -6.87059 -11.5984 33.285 -2.34158 -0.0 0.0 -0.0 -1.37958 22.2359 0.64326 -40.756 -13.0883 70.2989 0.476849 -13.2908 0.0555567 -37.3696 -2.67586 3.86541 -1.38719 12.8419 -3.44801 -0.0 0.0 -0.0 13.6062 27.0595 -26.9508 16.398 30.1133 -66.8788 1.62058 38.7541 -0.570001 72.7743 3.03321 8.15116 3.81102 3.57796 -24.9136 0.0 0.0 0.0 25.794 -3.8415 -8.77858 0.675629 -0.0284102 -0.0997861 3.79098 23.0988 -0.56837 -29.7757 0.0 0.0 -0.0 0.0 -0.0 -2.44494 -17.4781 9.478 -10.8347 -0.292278 -1.6346 30.9407 29.2022 4.875 14.7929 -0.0 -0.0 0.0 0.0 0.0 
3370.15 700.436 -1490.39 -13.255 69.4914 7.0496 1.58526 0.853618 4.01394 1.59403 0.596688 4.06001 1.63739 -0.152588 4.10072 1.61428 0.49641 4.07347 -10.3972 14.8994 -7.97754 -10.63 33.3697 -3.8077 -0.0 0.0 -0.0 -1.4717 22.2751 0.519825 -41.0795 -13.0254 70.8366 0.462677 -12.9092 0.0523445 -36.8707 -2.62468 3.82697 -1.16168 10.48 -3.0857 -0.0 0.0 -0.0 13.5856 26.7456 -26.9431 17.0923 30.7319 -66.5073 1.78502 41.4807 -0.675986 73.178 3.07663 8.17943 3.37826 1.2343 -22.7194 0.0 0.0 0.0 26.7062 -4.10737 -8.83354 3.06637 -0.138365 -0.450105 0.976617 25.7158 -0.14937 -31.8805 0.0 0.0 -0.0 0.0 -0.0 -2.66777 -17.1168 9.50837 -11.0038 -0.294376 -1.66047 31.122 28.7079 4.86781 15.0675 -0.0 -0.0 0.0 0.0 0.0 
3358.42 699.184 -1484.27 -14.856 68.936 8.27789 1.6315 0.808223 4.0602 1.6405 0.548448 4.1033 1.6807 -0.20491 4.13466 1.65713 0.450089 4.11523 -11.2194 15.356 -5.95494 -11.6559 32.9065 -1.40633 -0.0 0.0 -0.0 -1.59317 22.5686 0.395147 -40.7184 -13.0256 71.8618 0.47417 -13.2188 0.0549424 -36.8549 -2.62306 3.82575 -1.12231 11.4326 -2.40878 -0.0 0.0 -0.0 13.5283 26.605 -26.8275 17.5031 30.1155 -66.2946 1.89356 43.1637 -0.749077 72.8519 3.04154 8.15662 3.53929 1.97509 -23.5898 0.0 0.0 0.0 27.0627 -3.68817 -8.43354 4.20555 -0.195889 -0.615383 0.762551 27.3983 -0.117816 -30.71 0.0 0.0 -0.0 0.0 -0.0 -3.42367 -16.8863 10.0861 -8.40745 -0.253781 -1.26418 28.7335 29.2055 4.59998 18.5328 -0.0 -0.0 0.0 0.0 0.0 
